<svg width="22" height="22" viewBox="0 0 22 22" fill="none" xmlns="http://www.w3.org/2000/svg">
<path d="M11 22C4.92487 22 0 17.0751 0 11C0 4.92487 4.92487 0 11 0C17.0751 0 22 4.92487 22 11C22 17.0751 17.0751 22 11 22ZM11 19.8C15.8601 19.8 19.8 15.8601 19.8 11C19.8 6.13989 15.8601 2.2 11 2.2C6.13989 2.2 2.2 6.13989 2.2 11C2.2 15.8601 6.13989 19.8 11 19.8ZM12.1 9.35V14.3H13.2V16.5H8.8V14.3H9.9V11.55H8.8V9.35H12.1ZM12.65 6.6C12.65 7.51127 11.9112 8.25 11 8.25C10.0888 8.25 9.35 7.51127 9.35 6.6C9.35 5.68873 10.0888 4.95 11 4.95C11.9112 4.95 12.65 5.68873 12.65 6.6Z" fill="#F6F6F6"/>
</svg>
