<svg width="28" height="26" viewBox="0 0 26 26" fill="none" xmlns="http://www.w3.org/2000/svg">
<g clip-path="url(#clip0_298_19)">
<path d="M13.6195 2.50352C13.5585 2.53906 13.4773 2.61523 13.4367 2.66602C13.4011 2.72188 12.6546 4.37734 11.7812 6.34766C10.9078 8.31797 10.1765 9.94297 10.1613 9.96836C10.141 9.98867 9.12026 9.30313 7.89135 8.45C5.08315 6.48477 4.94604 6.39844 4.76323 6.39844C4.45854 6.39844 4.16401 6.66758 4.16401 6.95195C4.16401 7.00781 4.51948 8.63789 4.95619 10.5676C5.38784 12.4973 5.73823 14.0816 5.72807 14.0918C5.71791 14.0969 4.78862 14.3051 3.65619 14.5438C2.52377 14.7875 1.52338 15.0059 1.43705 15.0363C1.18823 15.1176 1.06635 15.3055 1.06635 15.6C1.06635 15.8996 0.990179 15.8234 2.85893 17.4434C3.60034 18.0832 4.20971 18.6266 4.20971 18.6469C4.21479 18.6621 3.62065 19.1445 2.89955 19.7133C2.17338 20.282 1.57924 20.7594 1.57924 20.7797C1.57416 20.8051 2.73198 20.8203 4.14369 20.8203H6.71323L7.37846 20.3023C7.74408 20.0129 8.07416 19.7539 8.11479 19.7234C8.17573 19.6777 7.99799 19.5 7.17026 18.7738C6.29174 18.002 6.15971 17.875 6.26127 17.8496C6.32221 17.8344 6.94174 17.6973 7.63237 17.5449C8.32807 17.3977 8.90698 17.2605 8.92221 17.2453C8.94252 17.2301 8.73432 16.2398 8.46518 15.0465C8.19604 13.8531 7.98276 12.868 7.99291 12.8629C7.99799 12.8527 8.72416 13.3504 9.60268 13.9648C10.4812 14.5793 11.2226 15.077 11.248 15.082C11.2785 15.082 11.7558 14.0512 12.3144 12.7969C12.8679 11.5375 13.3402 10.5117 13.3554 10.5117C13.3706 10.5117 13.6042 11.634 13.8683 13.0051C14.1324 14.3762 14.3609 15.5188 14.3761 15.5492C14.3964 15.5797 14.8788 15.2852 15.4831 14.884L16.5546 14.168V15.6406V17.1133L16.7984 17.1082C16.9304 17.1082 17.7226 17.0574 18.5605 16.9914C19.3984 16.9254 20.089 16.8797 20.0992 16.8848C20.1093 16.8949 19.4492 17.5449 18.6367 18.3371C17.8292 19.1293 17.164 19.7996 17.164 19.8301C17.164 19.8555 17.5042 20.0941 17.9206 20.3531L18.6722 20.8203H21.4042C23.6945 20.8203 24.1312 20.8102 24.0703 20.7543C24.0296 20.7137 23.3847 20.3023 22.6331 19.8352L21.2722 18.982L23.6386 16.641L26.005 14.2949L25.9999 14.0563C25.9999 13.7363 25.8121 13.5129 25.5175 13.4773C25.4058 13.4672 24.1617 13.5434 22.7499 13.6449L20.1855 13.8379L20.1601 11.4512C20.1449 10.141 20.1144 9.02383 20.089 8.97305C20.0281 8.84102 19.7894 8.73438 19.5558 8.73438C19.3831 8.73438 19.1597 8.86641 17.7124 9.82109C16.3515 10.725 16.0671 10.8977 16.0367 10.8266C16.0163 10.7809 15.6558 8.96289 15.2343 6.78945C14.7824 4.42305 14.4421 2.77773 14.3913 2.69141C14.2441 2.44766 13.8835 2.36133 13.6195 2.50352Z" fill="#F6F6F6"/>
<path d="M0.360547 21.9223C0.0914063 22.0543 0 22.2524 0 22.6992C0 23.136 0.0964844 23.3543 0.350391 23.4863C0.4875 23.5574 1.77734 23.5625 12.9441 23.5524L25.3805 23.5371L25.5176 23.4102C25.7512 23.1918 25.807 23.0242 25.7867 22.6434C25.7664 22.2473 25.6648 22.0645 25.3855 21.9274C25.223 21.841 24.5223 21.836 12.873 21.836C1.46758 21.836 0.517969 21.8461 0.360547 21.9223Z" fill="#F6F6F6"/>
</g>
<defs>
<clipPath id="clip0_298_19">
<rect width="26" height="26" fill="white"/>
</clipPath>
</defs>
</svg>
