<?xml version="1.0" standalone="no"?>
<!DOCTYPE svg PUBLIC "-//W3C//DTD SVG 20010904//EN"
 "http://www.w3.org/TR/2001/REC-SVG-20010904/DTD/svg10.dtd">
<svg version="1.0" xmlns="http://www.w3.org/2000/svg"
 width="28" height="24" viewBox="0 0 340.000000 291.000000"
 preserveAspectRatio="xMidYMid meet">
<metadata>
Created by potrace 1.16, written by Peter Selinger 2001-2019
</metadata>
<g transform="translate(0.000000,291.000000) scale(0.100000,-0.100000)"
fill="#f6f6f6" stroke="none">
<path d="M1545 2896 c-112 -37 -224 -122 -285 -216 -105 -164 -109 -397 -8
-557 30 -47 150 -163 170 -163 4 0 8 -141 8 -313 0 -363 3 -381 80 -457 105
-106 265 -106 370 0 77 76 80 94 80 456 0 248 3 313 13 317 7 3 46 33 86 68
57 50 79 77 106 133 79 166 69 370 -26 518 -46 71 -134 147 -219 187 -73 35
-79 36 -205 38 -87 2 -143 -2 -170 -11z m271 -244 c62 -32 97 -65 129 -124 26
-46 30 -63 30 -133 0 -70 -4 -87 -30 -133 -32 -59 -66 -91 -129 -125 -58 -31
-184 -31 -242 0 -63 34 -97 66 -128 123 -85 155 -11 342 161 406 53 20 157 13
209 -14z m-58 -1037 c-3 -289 -5 -297 -63 -297 -58 0 -60 8 -63 297 l-3 265
66 0 66 0 -3 -265z"/>
<path d="M2082 1814 l3 -125 420 -190 c231 -105 421 -191 422 -193 1 -1 -37
-19 -85 -40 -48 -21 -308 -139 -577 -261 -270 -123 -509 -228 -532 -235 -39
-12 -45 -10 -169 43 -106 45 -1085 486 -1091 491 -1 1 187 87 417 191 l420
190 0 124 c0 113 -1 123 -17 118 -18 -5 -925 -416 -971 -439 -13 -7 -36 -27
-52 -45 -39 -44 -42 -91 -38 -475 l3 -316 25 -27 c32 -35 147 -92 510 -255
162 -73 413 -186 557 -251 l262 -119 111 0 111 0 630 284 c347 157 646 295
664 308 59 40 60 43 63 393 2 176 0 344 -3 373 -12 96 15 80 -720 417 -159 73
-307 140 -328 148 l-38 16 3 -125z m-1027 -1023 l549 -251 97 0 97 0 571 260
c315 144 576 258 581 255 6 -4 10 -68 10 -148 l0 -142 -524 -233 c-552 -246
-708 -311 -741 -312 -28 0 -199 73 -767 327 l-488 218 0 152 0 152 33 -14 c17
-7 279 -126 582 -264z"/>
<path d="M2215 1413 c-31 -8 -63 -42 -76 -80 -9 -27 -7 -40 8 -70 26 -54 51
-63 176 -63 107 0 109 0 138 29 41 42 41 107 0 153 -28 32 -30 32 -127 34 -55
2 -108 0 -119 -3z"/>
</g>
</svg>
