<?xml version="1.0" standalone="no"?>
<!DOCTYPE svg PUBLIC "-//W3C//DTD SVG 20010904//EN"
 "http://www.w3.org/TR/2001/REC-SVG-20010904/DTD/svg10.dtd">
<svg version="1.0" xmlns="http://www.w3.org/2000/svg"
 width="28" height="24" viewBox="0 0 430.000000 376.000000"
 preserveAspectRatio="xMidYMid meet">
<metadata>
Created by potrace 1.16, written by Peter Selinger 2001-2019
</metadata>
<g transform="translate(0.000000,376.000000) scale(0.100000,-0.100000)"
fill="#f6f6f6" stroke="none">
<path d="M2392 3550 c-71 -15 -144 -54 -192 -102 -25 -25 -78 -103 -119 -174
-41 -71 -297 -514 -568 -984 -271 -470 -498 -872 -504 -895 -6 -22 -9 -78 -7
-125 3 -73 9 -94 38 -148 18 -35 54 -82 79 -104 42 -37 259 -165 1118 -658
254 -146 300 -169 358 -179 120 -21 244 17 328 102 30 29 209 331 598 1007
306 531 565 981 575 1000 15 28 19 57 19 145 0 106 -1 112 -34 173 -19 34 -52
79 -75 100 -45 41 -1357 803 -1423 826 -56 20 -139 26 -191 16z m718 -738
c437 -253 635 -373 634 -384 -2 -23 -1075 -1878 -1087 -1878 -16 0 -1286 734
-1287 744 0 17 1084 1886 1094 1886 6 -1 297 -166 646 -368z"/>
<path d="M2470 2221 c-297 -75 -345 -90 -343 -106 1 -20 164 -678 169 -684 2
-2 161 36 354 84 293 73 351 91 347 104 -2 9 -41 168 -88 354 -46 185 -86 337
-89 336 -3 0 -160 -40 -350 -88z"/>
<path d="M651 3414 c-94 -33 -167 -99 -218 -196 l-28 -53 0 -1200 0 -1200 29
-58 c35 -68 102 -134 177 -174 l54 -28 380 -3 c209 -1 430 -1 490 0 l110 3
-285 164 c-157 90 -293 171 -304 180 -14 12 -49 17 -150 21 l-131 5 0 1090 0
1090 494 5 495 5 103 179 c57 98 103 180 103 182 0 2 -287 4 -637 4 -549 -1
-644 -3 -682 -16z"/>
</g>
</svg>
