<?xml version="1.0" standalone="no"?>
<!DOCTYPE svg PUBLIC "-//W3C//DTD SVG 20010904//EN"
 "http://www.w3.org/TR/2001/REC-SVG-20010904/DTD/svg10.dtd">
<svg version="1.0" xmlns="http://www.w3.org/2000/svg"
 width="28" height="28" viewBox="0 0 367.000000 367.000000"
 preserveAspectRatio="xMidYMid meet">
<metadata>
Created by potrace 1.16, written by Peter Selinger 2001-2019
</metadata>
<g transform="translate(0.000000,367.000000) scale(0.100000,-0.100000)"
fill="#f6f6f6" stroke="none">
<path d="M1817 3599 c-18 -41 -51 -115 -72 -166 l-39 -92 -50 -6 c-203 -25
-479 -129 -670 -252 -88 -57 -279 -243 -362 -353 -75 -98 -181 -305 -223 -435
-29 -87 -52 -190 -65 -286 l-7 -45 -92 -39 c-211 -88 -242 -105 -226 -119 8
-7 78 -41 156 -76 78 -34 148 -70 156 -79 8 -9 20 -45 27 -81 35 -176 141
-443 227 -572 101 -152 276 -324 431 -425 167 -110 393 -198 589 -230 l109
-18 34 -80 c62 -148 109 -245 118 -245 5 0 41 73 81 163 l71 162 108 23 c325
70 554 193 778 416 236 237 380 511 431 824 l19 113 158 69 c87 37 160 71 164
74 11 12 -16 27 -164 92 -82 36 -152 68 -156 72 -4 4 -16 54 -28 112 -40 196
-109 370 -210 525 -229 351 -572 583 -990 670 -47 10 -93 25 -102 32 -9 8 -44
78 -78 156 -34 78 -68 148 -76 156 -11 12 -18 3 -47 -60z m315 -602 c265 -70
505 -234 674 -462 107 -145 179 -312 211 -489 20 -111 22 -314 4 -416 -83
-471 -462 -866 -931 -971 -519 -115 -1060 139 -1311 616 -100 189 -140 349
-140 555 0 342 122 625 373 866 171 164 357 264 588 315 128 28 397 21 532
-14z"/>
<path d="M1140 2526 c0 -8 74 -203 164 -433 208 -532 196 -503 208 -503 6 0
52 42 103 93 89 88 93 94 98 144 11 98 57 143 147 143 40 0 48 6 127 83 47 45
89 90 94 99 8 14 -49 40 -444 196 -519 206 -497 198 -497 178z m485 -266 c171
-68 312 -125 315 -127 11 -10 -75 -73 -99 -73 -36 -1 -110 -36 -144 -68 -37
-35 -54 -69 -68 -133 -13 -58 -76 -141 -90 -117 -10 18 -249 637 -249 644 0 3
6 4 13 1 6 -2 152 -60 322 -127z"/>
<path d="M2074 2014 c-77 -82 -94 -116 -94 -186 0 -64 -16 -90 -72 -119 -32
-16 -50 -19 -89 -14 l-49 7 -80 -82 c-56 -57 -80 -89 -78 -103 3 -23 115 -74
517 -236 278 -113 391 -155 397 -148 6 6 -36 123 -154 427 -145 372 -205 513
-221 518 -8 3 -42 -26 -77 -64z"/>
</g>
</svg>
