<svg width="28" height="21" viewBox="0 0 21 19" fill="none" xmlns="http://www.w3.org/2000/svg">
<path d="M1.75 0.460444C1.75 0.732358 1.975 2.01777 2.275 3.35261C2.8 5.70096 2.85 5.82456 4.2 7.18412L5.6 8.61785L4.875 9.35943C4.225 10.0269 4.125 10.0516 3.75 9.73022C3.525 9.53247 3.225 9.35943 3.1 9.35943C2.8 9.35943 0.5 11.6583 0.5 11.955C0.5 12.0786 0.85 12.5482 1.3 12.9932L2.1 13.8089L1.05 14.8719C0.475 15.4404 0 16.0337 0 16.182C0 16.4786 2.55 19 2.875 19C3 19 3.6 18.5303 4.175 17.9618L5.25 16.9236L6.075 17.7146C6.525 18.1595 7 18.5056 7.15 18.5056C7.45 18.5056 9.75 16.2314 9.75 15.9101C9.75 15.8112 9.575 15.5146 9.375 15.2921C9.05 14.9213 9.075 14.8224 9.75 14.1797L10.5 13.4629L11.25 14.1797C11.925 14.8224 11.95 14.9213 11.625 15.2921C11.425 15.5146 11.25 15.8112 11.25 15.9348C11.25 16.2314 13.575 18.5056 13.875 18.5056C14 18.5056 14.475 18.1595 14.925 17.7146L15.75 16.9236L16.825 17.9618C17.4 18.5303 18 19 18.15 19C18.45 19 21 16.4786 21 16.1573C21 16.0337 20.525 15.4404 19.95 14.8719L18.9 13.8089L19.7 12.9932C20.15 12.5482 20.5 12.0786 20.5 11.9302C20.5 11.6336 18.2 9.35943 17.875 9.35943C17.775 9.35943 17.475 9.53247 17.25 9.73022C16.875 10.0516 16.775 10.0269 16.125 9.35943L15.4 8.61785L16.8 7.18412L18.2 5.77512L18.775 3.00654C19.1 1.47394 19.275 0.163811 19.2 0.0649336C19.1 -0.033944 17.725 0.139092 16.125 0.460444C13.725 0.930113 13.15 1.12787 12.675 1.6717C12.35 2.01777 11.725 2.63575 11.3 3.05598L10.5 3.77284L9.05 2.38856C7.65 1.00427 7.6 1.00427 5.025 0.485164C1.85 -0.157541 1.75 -0.157541 1.75 0.460444ZM17.75 3.2043C17.325 5.05825 17.175 5.33017 15.975 6.54142L14.65 7.87627L12.95 6.22007L11.25 4.53915L12.575 3.22902C13.825 1.99305 14.075 1.86945 15.9 1.47394C16.975 1.22675 17.95 1.07843 18.025 1.12787C18.125 1.15259 18 2.11664 17.75 3.2043ZM5.475 1.5481L7.075 1.89417L11.6 6.36838L16.125 10.8426L15.425 11.51L14.75 12.2022L10.55 8.0493C6.625 4.16836 5.75 3.47621 5.75 4.21779C5.75 4.39083 7.625 6.3931 9.925 8.66729L14.125 12.8201L13.425 13.4876L12.75 14.1797L8.225 9.68078L3.675 5.20657L3.25 3.2043L2.8 1.20203H3.35C3.625 1.22675 4.6 1.37506 5.475 1.5481ZM9 13.4381L8.25 14.1797L6.575 12.5235L4.9 10.8673L5.625 10.101L6.35 9.35943L8.05 11.0156L9.75 12.6966L9 13.4381ZM5.775 13.2157C7.2 14.6494 8.425 15.8606 8.475 15.9348C8.625 16.0831 7.45 17.2696 7.15 17.2696C6.825 17.2696 1.75 12.301 1.75 11.9797C1.75 11.6831 2.75 10.5954 3.025 10.5954C3.125 10.5954 4.375 11.7819 5.775 13.2157ZM18.675 11.1392C19 11.4359 19.25 11.7819 19.25 11.9302C19.25 12.2763 14.225 17.2696 13.875 17.2696C13.625 17.2696 12.5 16.2809 12.5 16.0337C12.5 15.7618 17.6 10.6201 17.85 10.5954C18 10.5954 18.35 10.8426 18.675 11.1392Z" fill="#F6F6F6"/>
</svg>
