<svg width="28" height="19" viewBox="0 0 28 20" fill="none" xmlns="http://www.w3.org/2000/svg">
<path d="M20.25 0C24.3921 0 27.75 3.35786 27.75 7.5V12.5C27.75 16.6421 24.3921 20 20.25 20H7.75C3.60786 20 0.25 16.6421 0.25 12.5V7.5C0.25 3.35786 3.60786 0 7.75 0H20.25ZM20.25 2.5H7.75C5.07225 2.5 2.88615 4.60496 2.75612 7.25045L2.75 7.5V12.5C2.75 15.1777 4.85496 17.3639 7.50045 17.4939L7.75 17.5H20.25C22.9277 17.5 25.1139 15.395 25.2439 12.7495L25.25 12.5V7.5C25.25 4.82225 23.145 2.63615 20.4995 2.50612L20.25 2.5ZM11.5 6.25V8.75H14V11.25H11.4987L11.5 13.75H9L8.99875 11.25H6.5V8.75H9V6.25H11.5ZM21.5 11.25V13.75H19V11.25H21.5ZM19 6.25V8.75H16.5V6.25H19Z" fill="#F6F6F6"/>
</svg>
