<?xml version="1.0" standalone="no"?>
<!DOCTYPE svg PUBLIC "-//W3C//DTD SVG 20010904//EN"
 "http://www.w3.org/TR/2001/REC-SVG-20010904/DTD/svg10.dtd">
<svg version="1.0" xmlns="http://www.w3.org/2000/svg"
 width="28" height="22" viewBox="0 0 512.000000 512.000000"
 preserveAspectRatio="xMidYMid meet">
<metadata>
Created by potrace 1.16, written by Peter Selinger 2001-2019
</metadata>
<g transform="translate(0.000000,512.000000) scale(0.100000,-0.100000)"
fill="#f6f6f6" stroke="none">
<path d="M2250 5104 c-532 -72 -1050 -348 -1396 -746 -330 -378 -521 -821
-564 -1308 -8 -86 -10 -512 -8 -1365 l3 -1240 23 -62 c68 -181 220 -321 398
-368 76 -20 220 -19 298 1 86 22 170 70 241 135 73 70 122 147 156 253 l26 80
7 -46 c9 -59 63 -170 115 -235 58 -74 167 -148 263 -178 62 -20 100 -25 176
-25 171 0 292 49 407 164 74 74 137 182 150 259 4 20 11 37 15 37 4 0 11 -17
15 -37 3 -21 23 -72 43 -113 67 -138 210 -255 362 -295 90 -24 235 -20 328 10
182 57 334 220 375 402 l13 56 17 -63 c56 -198 211 -353 407 -405 72 -19 221
-19 294 0 181 47 337 194 399 374 l22 66 3 1235 c2 848 0 1274 -8 1360 -70
790 -546 1486 -1258 1838 -224 111 -466 184 -716 217 -146 19 -461 18 -606 -1z
m555 -386 c113 -13 302 -60 414 -103 672 -256 1139 -857 1221 -1570 6 -57 10
-537 10 -1298 0 -1310 3 -1246 -53 -1305 -77 -83 -213 -71 -280 24 -21 30 -29
57 -37 120 -16 142 -68 234 -171 303 -71 48 -140 65 -240 59 -180 -9 -323
-142 -350 -324 -6 -38 -12 -84 -15 -102 -6 -38 -53 -96 -97 -119 -48 -25 -117
-21 -168 9 -60 35 -85 84 -98 187 -6 47 -22 107 -35 137 -32 70 -111 148 -184
182 -51 24 -69 27 -162 27 -99 0 -110 -2 -171 -32 -123 -61 -194 -167 -211
-316 -11 -100 -39 -152 -99 -186 -51 -29 -119 -32 -166 -8 -43 23 -91 81 -97
119 -22 144 -29 176 -48 214 -33 71 -102 140 -176 176 -63 31 -73 33 -172 33
-96 0 -110 -3 -165 -29 -126 -62 -197 -169 -214 -321 -8 -66 -17 -98 -36 -126
-63 -96 -206 -110 -281 -27 -57 62 -54 -21 -54 1300 0 765 4 1246 10 1303 43
377 192 723 435 1015 245 294 596 515 975 614 238 62 450 75 715 44z"/>
<path d="M1715 3223 c-111 -15 -233 -78 -320 -167 -112 -114 -165 -243 -165
-401 0 -257 154 -464 410 -551 81 -28 242 -26 335 3 179 56 326 210 380 396
21 74 22 222 1 300 -27 99 -73 176 -155 258 -132 132 -298 187 -486 162z m161
-402 c48 -22 88 -70 103 -126 28 -105 -66 -224 -178 -225 -56 0 -119 37 -152
88 -58 92 -25 212 72 260 54 27 101 28 155 3z"/>
<path d="M3193 3215 c-199 -43 -369 -205 -428 -409 -22 -76 -22 -226 0 -303
68 -234 267 -399 507 -419 101 -9 196 9 297 57 66 31 99 54 155 112 113 115
166 243 166 402 0 158 -53 288 -165 401 -140 141 -339 201 -532 159z m205
-396 c62 -30 102 -95 102 -164 0 -97 -86 -185 -181 -185 -112 1 -206 119 -178
225 15 56 54 104 103 126 54 24 100 24 154 -2z"/>
</g>
</svg>
