<svg width="28" height="28" viewBox="0 0 351 355" fill="none" xmlns="http://www.w3.org/2000/svg">
<path d="M42.3055 73.2187C19.286 113.503 0.357269 146.923 0.218597 147.408C0.0105893 148.24 13.8778 148.379 84.6004 148.379C132.581 148.379 169.26 148.102 169.26 147.755C169.26 146.853 85.4325 0.346649 84.8084 0.138641C84.4618 0.0693054 65.325 32.9345 42.3055 73.2187ZM101.102 89.3047L117.258 117.524L100.964 117.732C92.0194 117.802 77.3202 117.802 68.3758 117.732L52.0819 117.524L68.2372 89.3047C77.0428 73.7734 84.4618 61.0156 84.6698 61.0156C84.8778 61.0156 92.2967 73.7734 101.102 89.3047Z" fill="#f6f6f6"/>
<path d="M202.541 74.1894V148.379H276.73H350.92V74.1894V-3.05176e-05H276.73H202.541V74.1894ZM321.105 73.8427V117.871H277.077H233.049V73.8427V29.8144H277.077H321.105V73.8427Z" fill="white"/>
<path d="M267.786 207.384C251.492 209.394 236.169 216.883 224.451 228.531C203.72 249.332 197.202 279.354 207.325 307.158C211.139 317.559 216.963 326.295 225.56 334.615C234.297 343.074 244.489 348.898 256.97 352.643C262.794 354.445 264.111 354.584 276.384 354.584C288.032 354.653 290.251 354.445 295.243 353.059C316.598 347.234 333.447 333.645 342.946 314.785C349.048 302.582 351.336 291.627 350.712 277.413C349.88 258.484 342.53 241.774 329.079 228.462C318.401 217.784 304.673 210.573 290.251 208.008C284.08 206.968 273.61 206.621 267.786 207.384ZM285.813 238.1C298.779 240.873 310.012 249.679 316.182 261.951C319.303 268.122 320.62 273.877 320.62 281.157C320.62 293.291 316.598 302.721 307.585 311.734C301.483 317.836 297.739 320.193 289.904 322.967C283.248 325.255 271.946 325.532 265.29 323.521C251.492 319.361 239.982 308.545 235.337 295.232C232.979 288.507 232.425 278.384 234.019 271.45C237.348 257.375 247.956 245.172 261.268 240.18C263.834 239.209 267.231 238.169 268.757 237.822C273.194 236.921 280.89 237.06 285.813 238.1Z" fill="#f6f6f6"/>
<path d="M22.2676 218.755L11.5205 229.502L37.3828 255.364L63.1758 281.157L37.3828 306.95L11.5205 332.812L22.2676 343.56L33.0146 354.307L58.8076 328.514L84.6699 302.651L110.532 328.514L136.325 354.307L147.072 343.56L157.819 332.812L131.957 306.95L106.164 281.157L131.957 255.364L157.819 229.502L147.072 218.755L136.325 208.008L110.532 233.801L84.6699 259.663L58.8076 233.801L33.0146 208.008L22.2676 218.755Z" fill="white"/>
</svg>
