<?xml version="1.0" standalone="no"?>
<!DOCTYPE svg PUBLIC "-//W3C//DTD SVG 20010904//EN"
 "http://www.w3.org/TR/2001/REC-SVG-20010904/DTD/svg10.dtd">
<svg version="1.0" xmlns="http://www.w3.org/2000/svg"
 width="28" height="28" viewBox="0 0 457.000000 452.000000"
 preserveAspectRatio="xMidYMid meet">
<metadata>
Created by potrace 1.16, written by Peter Selinger 2001-2019
</metadata>
<g transform="translate(0.000000,452.000000) scale(0.100000,-0.100000)"
fill="#f6f6f6" stroke="none">
<path d="M1925 3946 c-105 -35 -136 -50 -201 -99 -120 -91 -209 -207 -294
-382 -57 -117 -73 -161 -140 -370 -26 -84 -73 -275 -69 -279 2 -3 49 -12 104
-21 55 -9 104 -18 109 -18 4 -1 24 58 42 131 136 531 311 788 569 833 87 15
156 7 319 -36 327 -87 545 -87 875 1 168 45 244 51 336 30 156 -37 273 -148
378 -362 155 -312 290 -934 274 -1259 -9 -179 -52 -282 -137 -325 -102 -52
-167 -17 -385 204 -144 145 -181 178 -243 210 -41 21 -75 36 -78 34 -2 -3 16
-47 40 -99 24 -52 61 -143 82 -204 37 -107 40 -112 120 -191 84 -84 184 -152
267 -180 34 -12 73 -15 144 -12 82 3 107 8 156 32 116 56 199 171 237 327 40
169 23 518 -40 824 -124 597 -283 937 -520 1111 -123 91 -198 115 -372 121
l-137 5 -188 -48 -188 -49 -190 1 -190 0 -179 47 c-168 44 -185 47 -305 47
-105 -1 -138 -5 -196 -24z"/>
<path d="M2095 3411 c-11 -5 -29 -19 -40 -31 -17 -19 -20 -39 -23 -155 l-4
-133 -134 -4 c-131 -3 -134 -4 -161 -31 -23 -23 -28 -36 -28 -77 0 -41 5 -54
28 -77 27 -27 30 -28 162 -31 l135 -4 0 -79 0 -79 28 7 c15 3 63 16 107 28
l80 22 3 51 3 50 135 4 136 3 29 33 c33 37 39 93 13 130 -30 43 -65 52 -194
52 l-120 0 0 128 c0 140 -6 159 -60 187 -32 16 -64 18 -95 6z"/>
<path d="M3291 3402 c-70 -35 -98 -119 -62 -186 20 -37 75 -69 120 -69 140 0
190 172 72 250 -41 27 -84 29 -130 5z"/>
<path d="M2990 3102 c-125 -63 -93 -241 47 -258 143 -18 202 190 73 256 -48
25 -75 25 -120 2z"/>
<path d="M3589 3099 c-46 -27 -69 -66 -69 -119 0 -140 169 -188 247 -71 76
114 -61 260 -178 190z"/>
<path d="M3305 2804 c-22 -7 -41 -14 -42 -14 -1 0 -14 -20 -29 -45 -41 -70
-22 -142 49 -185 113 -69 253 64 189 180 -34 61 -102 87 -167 64z"/>
<path d="M1020 2636 c-147 -34 -234 -81 -342 -184 -222 -213 -379 -604 -489
-1222 -19 -106 -23 -162 -23 -375 -1 -216 2 -259 18 -315 29 -100 90 -222 136
-269 116 -120 319 -144 492 -59 51 25 96 64 234 203 93 94 190 184 215 198
127 75 277 100 589 101 260 1 372 -11 485 -52 107 -38 137 -61 315 -242 153
-155 171 -170 254 -211 89 -44 90 -44 195 -44 86 1 117 5 164 24 122 48 232
191 262 338 33 169 26 490 -16 723 -68 379 -151 658 -264 885 -86 175 -165
280 -276 369 -133 107 -237 140 -439 140 -118 0 -135 -3 -302 -47 l-177 -47
-196 0 -196 0 -177 46 c-200 51 -357 65 -462 40z m390 -270 c213 -51 285 -59
493 -53 186 5 266 17 459 69 65 17 107 22 193 20 104 -1 113 -3 181 -36 85
-43 176 -134 248 -249 114 -183 223 -532 297 -953 29 -166 37 -442 15 -543
-31 -144 -83 -210 -175 -219 -90 -8 -139 24 -334 221 -169 171 -174 175 -278
226 -167 81 -233 92 -594 98 -433 7 -589 -18 -770 -123 -64 -37 -114 -80 -245
-214 -98 -99 -181 -174 -205 -186 -56 -26 -145 -26 -182 2 -149 111 -154 553
-13 1118 90 357 192 577 339 729 135 140 280 164 571 93z"/>
<path d="M1119 2070 c-20 -11 -39 -26 -42 -34 -3 -8 -9 -76 -13 -150 l-7 -136
-107 0 c-131 0 -162 -6 -195 -36 -21 -20 -25 -32 -25 -82 0 -45 5 -66 21 -86
20 -26 21 -26 165 -26 l144 0 0 -141 0 -141 29 -29 c26 -25 37 -29 88 -29 52
0 63 4 86 28 27 28 27 30 27 170 l0 142 144 0 144 0 27 32 c24 28 27 39 23 85
-8 94 -46 113 -225 113 l-113 0 0 124 c0 69 -4 136 -10 150 -11 31 -65 66
-100 66 -14 -1 -41 -10 -61 -20z"/>
<path d="M2365 2076 c-17 -7 -43 -28 -58 -45 -22 -27 -27 -42 -27 -88 0 -101
54 -149 157 -141 44 4 60 11 84 35 72 71 46 200 -47 239 -41 17 -70 17 -109 0z"/>
<path d="M2064 1769 c-18 -5 -46 -25 -63 -44 -27 -31 -31 -43 -31 -91 0 -67
20 -108 63 -130 100 -53 217 15 217 126 0 98 -92 167 -186 139z"/>
<path d="M2637 1740 c-51 -45 -65 -95 -43 -154 25 -66 65 -96 128 -96 94 0
148 49 148 134 0 91 -45 138 -134 144 -59 4 -65 2 -99 -28z"/>
<path d="M2319 1421 c-36 -36 -39 -43 -39 -96 0 -99 45 -145 144 -145 50 0 61
4 92 33 64 58 63 150 -1 214 -30 30 -38 33 -95 33 -59 0 -64 -2 -101 -39z"/>
</g>
</svg>
