<?xml version="1.0" standalone="no"?>
<!DOCTYPE svg PUBLIC "-//W3C//DTD SVG 20010904//EN"
 "http://www.w3.org/TR/2001/REC-SVG-20010904/DTD/svg10.dtd">
<svg version="1.0" xmlns="http://www.w3.org/2000/svg"
 width="28" height="24" viewBox="0 0 512.000000 512.000000"
 preserveAspectRatio="xMidYMid meet">
<metadata>
Created by potrace 1.16, written by Peter Selinger 2001-2019
</metadata>
<g transform="translate(0.000000,512.000000) scale(0.100000,-0.100000)"
fill="#F6F6F6" stroke="none">
<path d="M2108 4894 c-93 -22 -176 -70 -248 -143 -128 -129 -160 -231 -160
-508 l0 -183 -442 0 c-362 0 -455 -3 -508 -16 -110 -26 -197 -88 -261 -187
-65 -100 -69 -137 -69 -621 l0 -426 188 0 c225 0 281 -9 390 -61 139 -67 239
-183 293 -339 32 -95 32 -238 -1 -339 -28 -89 -103 -205 -168 -261 -60 -53
-190 -116 -266 -129 -33 -6 -144 -11 -248 -11 l-188 0 0 -426 c0 -484 4 -521
69 -621 64 -99 151 -161 261 -187 53 -13 144 -16 493 -16 l427 0 0 188 c0 225
9 281 61 390 67 139 183 239 339 293 92 32 248 32 340 0 156 -54 272 -154 339
-293 52 -109 61 -165 61 -390 l0 -188 426 0 c484 0 521 4 621 69 99 64 161
151 187 261 13 53 16 146 16 508 l0 442 178 0 c203 0 283 13 382 62 81 39 184
140 228 224 166 317 -15 705 -363 779 -46 10 -130 15 -247 15 l-178 0 0 443
c0 361 -3 454 -16 507 -26 110 -88 197 -187 261 -101 65 -136 69 -636 69
l-441 0 0 178 c0 278 -34 388 -159 513 -134 135 -327 189 -513 143z"/>
</g>
</svg>
