<svg width="28" height="24" viewBox="0 0 23 18" fill="none" xmlns="http://www.w3.org/2000/svg">
<path d="M9.33189 0.756934C8.852 1.37012 8.77202 1.7167 8.90532 2.67647C9.03863 3.74287 8.95865 4.06279 8.02554 5.60908C6.77251 7.74189 6.05269 8.43506 5.49282 8.11514C4.71968 7.68857 3.73325 6.06231 3.73325 5.23584C3.73325 3.58291 1.4938 2.56982 0.454055 3.71621C-0.185789 4.40938 -0.132469 6.06231 0.507375 6.40889C1.3605 6.88877 2.40025 11.8742 2.40025 15.66V17.3662H10.8782H19.3828L19.5694 14.4869C19.7827 10.8611 20.5825 7.42197 21.4623 6.38223C22.2621 5.42246 22.2887 4.8626 21.5689 3.92949C20.4492 2.5165 18.423 3.26299 18.263 5.15586C18.2097 5.63574 18.1831 6.11563 18.1564 6.22227C18.1031 6.62217 16.4501 8.30176 16.1036 8.30176C15.7037 8.30176 14.7972 7.15537 13.6508 5.20918C12.9843 4.06279 12.8777 3.63623 12.9843 2.59648C13.1176 1.55674 13.0376 1.23682 12.5311 0.703614C11.6247 -0.256152 10.105 -0.229492 9.33189 0.756934ZM12.771 5.76904C13.9174 7.76855 15.3837 9.36816 16.1302 9.36816C16.7701 9.36816 17.6499 8.64834 18.583 7.36865C19.0095 6.78213 19.2495 6.64883 19.4627 6.86211C19.6494 7.07539 19.596 7.76855 19.1961 9.39482C18.9029 10.6212 18.6629 12.0342 18.6629 12.4874V13.3672H10.9582H3.28003L3.12007 11.6876C3.01343 10.7812 2.77349 9.36816 2.56021 8.56836C2.34693 7.71523 2.26695 6.99541 2.40025 6.86211C2.56021 6.72881 3.17339 7.18203 3.94654 7.98184C4.69302 8.78164 5.46616 9.36816 5.78609 9.36816C6.53257 9.36816 7.83892 7.98184 9.01197 5.95566C9.91841 4.40938 10.0251 4.30273 10.9582 4.30273C11.8913 4.30273 11.9979 4.40938 12.771 5.76904ZM18.6096 15.42L18.6896 16.2998H11.0915C3.06675 16.2998 3.17339 16.3265 3.41333 15.0468L3.51997 14.4336L11.0381 14.4869L18.5296 14.5669L18.6096 15.42Z" fill="#f6f6f6"/>
</svg>
