<svg width="28" height="24" viewBox="0 0 24 24" fill="none" xmlns="http://www.w3.org/2000/svg">
<path d="M11.4209 0.26016C11.1607 0.511946 11.1607 0.52873 11.1607 1.3848V2.24927L10.6404 2.30802C9.94375 2.39194 8.85268 2.71087 8.02179 3.07177C5.05911 4.37266 2.82661 7.28498 2.33983 10.4743L2.23911 11.1625H1.45018C1.01376 11.1625 0.577327 11.2044 0.476613 11.2548C-0.178029 11.5905 -0.152851 12.5137 0.518577 12.7487C0.661256 12.7991 1.10608 12.841 1.51733 12.841H2.2475L2.30625 13.2775C2.47411 14.6287 3.06161 16.1898 3.82536 17.3564C5.34447 19.656 8.08893 21.4018 10.6404 21.6955L11.1607 21.7543V22.5432C11.1607 23.651 11.3621 24.0035 12 24.0035C12.6379 24.0035 12.8393 23.651 12.8393 22.5432V21.7543L13.368 21.6955C13.6534 21.6619 14.2073 21.5444 14.6018 21.4269C18.3366 20.3526 21.1062 17.2305 21.6686 13.4453L21.7525 12.841H22.4911C22.8939 12.841 23.3387 12.7991 23.4814 12.7487C24.1529 12.5137 24.178 11.5905 23.5234 11.2548C23.4227 11.2044 22.9862 11.1625 22.5498 11.1625H21.7525L21.6937 10.7177C21.5259 9.38319 20.9468 7.83051 20.1662 6.63873C19.6123 5.78266 18.2359 4.38105 17.4554 3.86909C16.2804 3.10534 14.7361 2.50944 13.4939 2.33319L12.8393 2.24087V1.37641C12.8393 0.52873 12.8393 0.511946 12.5791 0.26016C12.3861 0.0587311 12.2518 -1.90735e-05 12 -1.90735e-05C11.7482 -1.90735e-05 11.6139 0.0587311 11.4209 0.26016ZM12.7973 3.94462C15.3655 4.23837 17.5645 5.6148 18.8905 7.76337C21.6014 12.1612 19.5284 17.9859 14.6605 19.6393C13.6618 19.975 13.0155 20.0841 12 20.0841C8.87786 20.0841 6.1334 18.3803 4.70661 15.5519C4.07715 14.3014 3.79179 12.606 3.95125 11.1457C4.37929 7.36051 7.25804 4.4398 11.0348 3.95301C11.8573 3.8523 11.9496 3.8523 12.7973 3.94462Z" fill="#F6F6F6"/>
<path d="M10.6822 6.88211C9.12954 7.28496 7.97972 8.22496 7.24954 9.66853C6.88026 10.4071 6.7124 11.1205 6.7124 12.0017C6.7208 13.2103 7.04812 14.2342 7.75312 15.1575C8.72669 16.4584 10.0612 17.1717 11.681 17.2641C12.7385 17.3312 13.3595 17.2053 14.3415 16.7269C15.441 16.1982 16.1963 15.4428 16.7251 14.3434C17.1699 13.4285 17.2874 12.925 17.2874 12.0017C17.2874 11.0785 17.1699 10.575 16.7251 9.66014C15.6592 7.43604 13.091 6.25264 10.6822 6.88211Z" fill="#F6F6F6"/>
</svg>
