<?xml version="1.0" standalone="no"?>
<!DOCTYPE svg PUBLIC "-//W3C//DTD SVG 20010904//EN"
 "http://www.w3.org/TR/2001/REC-SVG-20010904/DTD/svg10.dtd">
<svg version="1.0" xmlns="http://www.w3.org/2000/svg"
 width="28" height="28" viewBox="0 0 987.000000 1363.000000"
 preserveAspectRatio="xMidYMid meet">
<metadata>
Created by potrace 1.16, written by Peter Selinger 2001-2019
</metadata>
<g transform="translate(0.000000,1363.000000) scale(0.100000,-0.100000)"
fill="#f6f6f6" stroke="none">
<path d="M5980 12074 c-243 -47 -458 -155 -627 -316 -201 -193 -324 -429 -363
-697 -18 -120 -8 -374 19 -480 93 -365 346 -663 691 -812 175 -75 342 -105
540 -96 309 15 579 134 796 351 423 424 470 1104 109 1584 -67 90 -221 229
-319 291 -105 65 -242 125 -350 153 -65 16 -119 21 -276 23 -107 2 -206 1
-220 -1z"/>
<path d="M5100 9657 c-25 -6 -97 -37 -160 -70 -63 -32 -140 -69 -171 -81 -143
-59 -1782 -953 -2042 -1114 -118 -73 -192 -142 -227 -212 -42 -84 -89 -251
-295 -1045 -103 -396 -205 -790 -227 -875 -68 -258 -56 -398 45 -532 52 -69
104 -112 177 -146 44 -21 74 -27 151 -30 164 -7 271 29 363 121 59 58 83 100
116 196 11 34 113 419 226 854 232 897 241 928 251 938 9 8 894 494 971 533
30 15 56 26 58 24 2 -3 -82 -359 -186 -794 -174 -722 -191 -801 -200 -928 -15
-184 -2 -294 44 -391 65 -139 308 -403 551 -600 253 -205 454 -377 521 -447
40 -40 110 -132 156 -203 155 -237 951 -1552 1008 -1665 41 -80 41 -54 -5
-610 -152 -1843 -149 -1731 -64 -1899 100 -197 331 -355 557 -379 324 -36 609
156 723 485 29 87 53 322 153 1553 60 734 69 877 63 1000 -6 122 -30 201 -106
350 -52 103 -1208 2001 -1349 2215 -47 72 -106 151 -130 177 l-43 47 180 758
c219 921 372 1572 401 1712 26 119 24 246 -5 361 -28 112 -108 259 -183 341
-125 135 -190 163 -622 268 -364 89 -433 101 -552 100 -56 -1 -123 -6 -148
-12z"/>
<path d="M6835 8493 c-10 -69 -60 -288 -194 -856 -172 -724 -159 -654 -131
-740 33 -104 107 -274 140 -322 33 -49 75 -82 147 -118 72 -37 474 -189 1551
-588 364 -135 409 -149 467 -149 195 0 346 93 432 267 38 76 38 78 38 198 0
111 -2 124 -28 176 -36 73 -132 177 -195 212 -64 35 -442 181 -1132 437 -300
111 -550 207 -556 213 -6 7 -73 172 -149 367 -225 581 -366 934 -374 943 -5 5
-12 -13 -16 -40z"/>
<path d="M3887 5688 c-36 -45 -204 -265 -373 -488 -169 -223 -406 -534 -526
-691 l-218 -285 -92 -26 c-51 -15 -250 -68 -443 -118 -1412 -369 -1314 -337
-1451 -474 -136 -138 -206 -307 -207 -501 0 -194 57 -329 198 -470 74 -74 105
-98 175 -132 176 -85 311 -94 560 -38 364 83 1721 435 1844 479 190 68 251
118 460 380 158 198 1166 1526 1166 1537 0 10 -193 178 -385 335 -262 213
-364 303 -512 447 l-131 129 -65 -84z"/>
</g>
</svg>
