<svg width="28" height="24" viewBox="0 0 18 24" fill="none" xmlns="http://www.w3.org/2000/svg">
<path d="M3.45783 0.302406C3.18558 0.574656 3.15533 0.801531 3.15533 2.76778C3.15533 5.30878 3.26121 5.59616 4.22921 5.59616C4.66783 5.59616 4.81908 5.65666 4.81908 5.83816C4.81908 5.95916 4.51658 8.50016 4.13846 11.4647C3.76033 14.4292 3.45783 16.8945 3.45783 16.955C3.45783 17.0155 3.26121 17.0912 3.01921 17.1365C2.29321 17.2878 1.94533 17.7869 1.94533 18.6944V19.4658L1.37058 19.5717C0.447958 19.7078 0.0698328 20.2372 0.0093328 21.4623C-0.0209172 22.0673 0.0244578 22.6269 0.115208 22.8235L0.296708 23.1412H8.60033C18.2047 23.1412 17.3123 23.3227 17.1308 21.4623C17.0098 20.1767 16.6922 19.7078 15.8452 19.5717L15.2553 19.4658V18.7247C15.2553 18.1045 15.1797 17.9079 14.8167 17.5298C14.5747 17.2878 14.242 17.0912 14.0756 17.0912C13.7277 17.0912 13.6975 16.955 13.3798 14.2174C13.2588 13.1738 12.9866 10.9655 12.7597 9.30178C12.2606 5.33903 12.2455 5.59616 12.9866 5.59616C13.9697 5.59616 14.0756 5.27853 14.0151 2.66191C13.9546 -0.015219 13.9697 0.015031 12.1396 -9.39726e-05C10.6422 -9.39726e-05 10.4002 0.166281 10.007 1.36116L9.73471 2.19303L8.58521 2.23841L7.43571 2.28378L7.16346 1.36116C6.80046 0.151156 6.55846 -9.39726e-05 5.01571 -9.39726e-05C3.95696 -9.39726e-05 3.71496 0.045281 3.45783 0.302406ZM6.24083 2.04178C6.42233 2.54091 6.61896 3.04003 6.67946 3.14591C6.77021 3.26691 7.32983 3.32741 8.52471 3.32741C10.5061 3.32741 10.5515 3.29716 10.9598 2.08716C11.096 1.64853 11.2321 1.27041 11.2472 1.24016C11.2775 1.20991 11.6253 1.14941 12.0488 1.10403C12.7295 1.02841 12.8051 1.05866 12.8807 1.39141C13.0168 1.84516 13.0168 3.97778 12.8958 4.29541C12.8202 4.50716 12.2908 4.53741 8.50958 4.53741H4.21408V2.90391C4.21408 1.99641 4.24433 1.22503 4.28971 1.17966C4.33508 1.13428 4.72833 1.10403 5.15183 1.11916L5.92321 1.13428L6.24083 2.04178ZM11.1565 5.85328C11.2321 6.00453 11.3077 6.42803 11.338 6.80616L11.3985 7.48678H8.60033H5.80221L5.86271 6.65491C5.87783 6.20116 5.93833 5.77766 5.98371 5.70203C6.01396 5.64153 7.16346 5.59616 8.52471 5.59616C10.733 5.59616 11.0203 5.62641 11.1565 5.85328ZM12.0488 12.5083C12.3211 14.656 12.5328 16.5618 12.5328 16.7584V17.0912L8.57008 17.0609C4.06283 17.0155 4.54683 17.1819 4.74346 15.6845L4.83421 14.9737H7.78358C10.37 14.9737 10.733 14.9434 10.8237 14.7317C10.8691 14.5955 10.854 14.3687 10.7632 14.2325C10.6271 14.0208 10.1885 13.9905 7.78358 13.9452C5.68121 13.9149 4.97033 13.8544 4.97033 13.7183C4.97033 13.6275 5.10646 12.5083 5.27283 11.268C5.43921 10.0127 5.57533 8.90853 5.57533 8.80266C5.57533 8.66653 6.27108 8.62116 8.57008 8.62116H11.5648L12.0488 12.5083ZM14.1663 18.8608L14.2117 19.5112H8.61546H3.00408V18.9364C3.00408 18.6188 3.04946 18.3012 3.10996 18.2558C3.17046 18.1953 5.66608 18.165 8.66083 18.1802L14.121 18.2255L14.1663 18.8608ZM9.06921 20.7212H16.0116V21.4018V22.0824H8.60033H1.18908V21.4169C1.18908 20.7363 1.40083 20.5094 1.91508 20.6607C2.03608 20.6909 5.24258 20.7212 9.06921 20.7212Z" fill="#f6f6f6"/>
</svg>
