<svg width="16" height="16" viewBox="0 0 16 16" fill="none" xmlns="http://www.w3.org/2000/svg">
<path fill-rule="evenodd" clip-rule="evenodd" d="M8.00075 0C5.82806 0 5.55538 0.00949997 4.70206 0.0483122C3.85038 0.0873119 3.26906 0.222123 2.76038 0.419997C2.23419 0.624308 1.78788 0.897618 1.34319 1.34249C0.898188 1.78711 0.624813 2.23348 0.419813 2.75948C0.2215 3.26829 0.0864999 3.84978 0.0481874 4.70115C0.00999988 5.55446 0 5.82733 0 8C0 10.1727 0.00968755 10.4445 0.0483125 11.2978C0.0875001 12.1495 0.222312 12.7308 0.42 13.2395C0.6245 13.7656 0.897813 14.212 1.34269 14.6567C1.78719 15.1017 2.2335 15.3757 2.75938 15.58C3.26838 15.7778 3.84988 15.9127 4.70138 15.9517C5.55475 15.9905 5.82725 16 7.99975 16C10.1726 16 10.4444 15.9905 11.2978 15.9517C12.1494 15.9127 12.7314 15.7778 13.2405 15.58C13.7665 15.3757 14.2121 15.1017 14.6566 14.6567C15.1016 14.212 15.375 13.7656 15.58 13.2396C15.7767 12.7308 15.9117 12.1493 15.9517 11.298C15.99 10.4447 16 10.1727 16 8C16 5.82733 15.99 5.55464 15.9517 4.70134C15.9117 3.84966 15.7767 3.26829 15.58 2.75967C15.375 2.23348 15.1016 1.78711 14.6566 1.34249C14.2116 0.897493 13.7666 0.62412 13.24 0.419997C12.7299 0.222123 12.1483 0.0873119 11.2966 0.0483122C10.4433 0.00949997 10.1716 0 7.99825 0H8.00075ZM7.73394 1.44155H7.73413L8.00075 1.44161C10.1368 1.44161 10.3899 1.4493 11.2334 1.48761C12.0134 1.5233 12.4368 1.65361 12.7188 1.76311C13.0921 1.90811 13.3583 2.08148 13.6381 2.36148C13.9181 2.64148 14.0915 2.90816 14.2368 3.28147C14.3463 3.56316 14.4768 3.98647 14.5123 4.76646C14.5506 5.60983 14.559 5.86314 14.559 7.99819C14.559 10.1332 14.5506 10.3865 14.5123 11.2298C14.4766 12.0098 14.3463 12.4332 14.2368 12.7148C14.0918 13.0881 13.9181 13.354 13.6381 13.6338C13.3581 13.9138 13.0923 14.0872 12.7188 14.2322C12.4371 14.3422 12.0134 14.4722 11.2334 14.5078C10.3901 14.5462 10.1368 14.5545 8.00075 14.5545C5.86456 14.5545 5.61138 14.5462 4.76806 14.5078C3.98806 14.4718 3.56469 14.3415 3.28256 14.232C2.90919 14.087 2.6425 13.9136 2.3625 13.6336C2.0825 13.3536 1.90919 13.0876 1.76388 12.7142C1.65438 12.4325 1.52388 12.0092 1.48838 11.2292C1.45 10.3859 1.44238 10.1325 1.44238 7.99619C1.44238 5.85983 1.45 5.60783 1.48838 4.76446C1.524 3.98447 1.65438 3.56116 1.76388 3.27916C1.90888 2.90579 2.0825 2.63917 2.3625 2.35917C2.6425 2.07917 2.90919 1.9058 3.28256 1.76049C3.56456 1.65049 3.98806 1.52049 4.76806 1.48461C5.50606 1.4513 5.79206 1.4413 7.28306 1.43961V1.44161C7.42238 1.44143 7.57225 1.44149 7.73394 1.44155ZM11.3111 3.72966C11.3111 3.19947 11.7411 2.76998 12.2711 2.76998V2.76967C12.8011 2.76967 13.2311 3.19966 13.2311 3.72966C13.2311 4.25965 12.8011 4.68965 12.2711 4.68965C11.7411 4.68965 11.3111 4.25965 11.3111 3.72966ZM8.00056 3.89166C5.73181 3.89172 3.89237 5.7312 3.89237 8C3.89237 10.2689 5.73188 12.1075 8.00075 12.1075C10.2696 12.1075 12.1084 10.2689 12.1084 8C12.1084 5.73114 10.2694 3.89166 8.00056 3.89166ZM10.6674 8C10.6674 6.52714 9.47344 5.33333 8.00075 5.33333C6.52788 5.33333 5.33406 6.52714 5.33406 8C5.33406 9.47268 6.52788 10.6667 8.00075 10.6667C9.47344 10.6667 10.6674 9.47268 10.6674 8Z" fill="#DADADA"/>
</svg>
