<?xml version="1.0" standalone="no"?>
<!DOCTYPE svg PUBLIC "-//W3C//DTD SVG 20010904//EN"
 "http://www.w3.org/TR/2001/REC-SVG-20010904/DTD/svg10.dtd">
<svg version="1.0" xmlns="http://www.w3.org/2000/svg"
 width="400.000000pt" height="400.000000pt" viewBox="0 0 400.000000 400.000000"
 preserveAspectRatio="xMidYMid meet">
<metadata>
Created by potrace 1.16, written by Peter Selinger 2001-2019
</metadata>
<g transform="translate(0.000000,400.000000) scale(0.100000,-0.100000)"
fill="#000000" stroke="none">
<path d="M1655 3980 c-140 -26 -375 -96 -465 -140 -278 -135 -430 -240 -608
-418 -255 -256 -435 -566 -523 -902 -47 -176 -59 -285 -59 -520 0 -305 31
-481 127 -730 38 -96 104 -235 114 -238 5 -2 9 -9 9 -15 0 -15 88 -150 163
-251 131 -175 376 -389 576 -503 63 -37 239 -123 249 -123 4 0 18 -6 32 -13
14 -7 57 -23 95 -35 249 -76 358 -92 635 -92 232 0 369 15 510 56 30 9 78 23
105 31 55 16 165 58 205 78 124 61 242 124 250 135 3 3 21 15 40 26 101 59
390 312 390 342 0 7 4 12 10 12 10 0 148 179 170 220 7 14 16 27 20 30 11 8
80 136 140 260 10 19 33 82 52 140 91 271 108 375 108 670 0 294 -25 442 -114
692 -168 468 -547 892 -986 1104 -30 14 -67 33 -82 40 -89 47 -321 116 -483
145 -151 26 -531 26 -680 -1z m655 -216 c225 -43 459 -132 615 -234 17 -11 37
-23 45 -27 8 -4 33 -21 56 -38 22 -16 53 -39 69 -50 39 -27 295 -280 295 -291
0 -5 8 -17 18 -25 31 -28 102 -133 164 -244 38 -68 99 -207 120 -275 11 -36
26 -83 34 -105 7 -22 23 -89 35 -150 32 -160 32 -490 0 -650 -45 -230 -124
-428 -256 -644 -28 -46 -97 -140 -125 -171 -68 -74 -212 -220 -219 -220 -3 0
-14 -8 -22 -17 -81 -90 -374 -255 -559 -315 -242 -80 -322 -92 -580 -92 -233
0 -334 14 -515 71 -173 54 -329 126 -460 213 -12 8 -46 31 -76 51 -30 20 -65
48 -79 62 -14 15 -28 27 -31 27 -6 0 -199 191 -199 198 0 2 -14 18 -30 36 -96
101 -245 371 -302 546 -79 239 -92 322 -92 580 0 152 4 229 17 300 44 239 143
489 267 674 8 13 28 43 44 67 38 59 35 55 188 212 75 75 140 137 147 137 6 0
11 4 11 10 0 12 84 70 205 142 96 57 245 126 335 153 30 10 75 24 99 33 60 20
177 42 286 52 125 12 393 3 495 -16z"/>
<path d="M1640 2788 c-37 -26 -53 -66 -44 -115 6 -32 19 -46 145 -155 29 -27
74 -66 99 -89 25 -22 78 -67 118 -101 39 -33 72 -65 72 -69 0 -5 5 -9 11 -9 7
0 22 -10 34 -22 29 -30 85 -80 173 -153 39 -33 72 -67 72 -75 0 -8 -33 -42
-72 -75 -70 -58 -122 -104 -178 -155 -15 -14 -38 -34 -51 -45 -52 -44 -185
-159 -201 -174 -9 -9 -44 -41 -79 -71 -151 -133 -143 -122 -143 -180 0 -45 4
-56 28 -76 56 -49 120 -40 185 23 20 19 71 65 114 101 42 36 77 69 77 74 0 4
7 8 15 8 7 0 18 6 22 13 4 8 60 58 123 112 122 105 155 134 200 176 15 14 65
58 111 97 126 107 134 117 134 172 0 54 -10 66 -150 186 -44 37 -89 77 -101
88 -11 12 -33 32 -50 46 -145 122 -231 199 -262 233 -9 9 -22 17 -29 17 -7 0
-13 4 -13 8 0 5 -37 40 -82 78 -46 38 -96 83 -113 99 -58 58 -112 69 -165 33z"/>
</g>
</svg>
