<svg width="598" height="151" viewBox="0 0 598 151" fill="none" xmlns="http://www.w3.org/2000/svg">
<mask id="path-1-outside-1_491_10" maskUnits="userSpaceOnUse" x="193" y="13" width="397" height="136" fill="black">
<rect fill="white" x="193" y="13" width="397" height="136"/>
<path d="M194.042 56V16.1H214.895C225.535 16.1 231.33 21.1825 231.33 30.73C231.33 40.23 225.535 45.3125 214.895 45.3125H203.495V56H194.042ZM203.495 37.38H214.278C218.933 37.38 221.83 35.1475 221.83 30.73C221.83 26.265 218.933 24.0325 214.278 24.0325H203.495V37.38ZM244.59 56V16.1H254.042V48.0675H277.032V56H244.59ZM322.87 56L320.4 49.3025H300.735L298.265 56H288.48L303.917 16.1H317.217L332.702 56H322.87ZM303.395 42.13H317.74L311.47 25.0775H309.665L303.395 42.13ZM376.253 16.1L359.771 43.2225V56H350.271V43.175L333.836 16.1H343.906L354.546 33.96H355.543L366.183 16.1H376.253ZM388.384 56V16.1H397.836V56H388.384ZM411.6 56V16.1H422.572L441.097 42.9375H442V16.1H451.262V56H440.48L421.717 29.1625H420.862V56H411.6ZM506.454 34.91V56H500.516L500.421 50.205C497.666 54.385 492.631 57.33 485.554 57.33C473.489 57.33 464.274 48.59 464.274 36.05C464.274 23.51 473.204 14.77 486.314 14.77C494.959 14.77 503.699 18.8075 505.836 28.83H496.384C494.864 25.22 491.254 22.9875 486.456 22.9875C479.046 22.9875 473.631 28.355 473.631 36.05C473.631 43.6975 479.094 49.1125 486.266 49.1125C490.256 49.1125 495.814 47.355 497.191 41.3225H485.601V34.91H506.454ZM195.942 148V71H260.658V86.3083H214.183V104.458H258.092V118.3H214.183V148H195.942ZM287.151 148V71H305.393V148H287.151ZM331.955 148V71H396.763V85.9417H350.197V102.808H395.113V116.008H350.197V132.967H396.763V148H331.955ZM423.38 148V71H441.621V132.692H485.988V148H423.38ZM547.18 71C577.063 71 588.43 87.5917 588.43 109.5C588.43 131.408 577.063 148 547.18 148H511.796V71H547.18ZM547.088 132.6C562.03 132.6 570.096 124.35 570.096 109.5C570.096 94.65 562.03 86.4 547.088 86.4H530.221L530.038 132.6H547.088Z"/>
</mask>
<path d="M194.042 56V16.1H214.895C225.535 16.1 231.33 21.1825 231.33 30.73C231.33 40.23 225.535 45.3125 214.895 45.3125H203.495V56H194.042ZM203.495 37.38H214.278C218.933 37.38 221.83 35.1475 221.83 30.73C221.83 26.265 218.933 24.0325 214.278 24.0325H203.495V37.38ZM244.59 56V16.1H254.042V48.0675H277.032V56H244.59ZM322.87 56L320.4 49.3025H300.735L298.265 56H288.48L303.917 16.1H317.217L332.702 56H322.87ZM303.395 42.13H317.74L311.47 25.0775H309.665L303.395 42.13ZM376.253 16.1L359.771 43.2225V56H350.271V43.175L333.836 16.1H343.906L354.546 33.96H355.543L366.183 16.1H376.253ZM388.384 56V16.1H397.836V56H388.384ZM411.6 56V16.1H422.572L441.097 42.9375H442V16.1H451.262V56H440.48L421.717 29.1625H420.862V56H411.6ZM506.454 34.91V56H500.516L500.421 50.205C497.666 54.385 492.631 57.33 485.554 57.33C473.489 57.33 464.274 48.59 464.274 36.05C464.274 23.51 473.204 14.77 486.314 14.77C494.959 14.77 503.699 18.8075 505.836 28.83H496.384C494.864 25.22 491.254 22.9875 486.456 22.9875C479.046 22.9875 473.631 28.355 473.631 36.05C473.631 43.6975 479.094 49.1125 486.266 49.1125C490.256 49.1125 495.814 47.355 497.191 41.3225H485.601V34.91H506.454ZM195.942 148V71H260.658V86.3083H214.183V104.458H258.092V118.3H214.183V148H195.942ZM287.151 148V71H305.393V148H287.151ZM331.955 148V71H396.763V85.9417H350.197V102.808H395.113V116.008H350.197V132.967H396.763V148H331.955ZM423.38 148V71H441.621V132.692H485.988V148H423.38ZM547.18 71C577.063 71 588.43 87.5917 588.43 109.5C588.43 131.408 577.063 148 547.18 148H511.796V71H547.18ZM547.088 132.6C562.03 132.6 570.096 124.35 570.096 109.5C570.096 94.65 562.03 86.4 547.088 86.4H530.221L530.038 132.6H547.088Z" fill="#083358"/>
<path d="M194.042 56H193.042V57H194.042V56ZM194.042 16.1V15.1H193.042V16.1H194.042ZM203.495 45.3125V44.3125H202.495V45.3125H203.495ZM203.495 56V57H204.495V56H203.495ZM203.495 37.38H202.495V38.38H203.495V37.38ZM203.495 24.0325V23.0325H202.495V24.0325H203.495ZM195.042 56V16.1H193.042V56H195.042ZM194.042 17.1H214.895V15.1H194.042V17.1ZM214.895 17.1C220.071 17.1 223.907 18.3373 226.439 20.5829C228.951 22.8107 230.33 26.1639 230.33 30.73H232.33C232.33 25.7486 230.811 21.7868 227.766 19.0865C224.741 16.404 220.359 15.1 214.895 15.1V17.1ZM230.33 30.73C230.33 35.2709 228.952 38.6123 226.44 40.8348C223.907 43.0752 220.071 44.3125 214.895 44.3125V46.3125C220.359 46.3125 224.74 45.0085 227.765 42.3327C230.81 39.639 232.33 35.6891 232.33 30.73H230.33ZM214.895 44.3125H203.495V46.3125H214.895V44.3125ZM202.495 45.3125V56H204.495V45.3125H202.495ZM203.495 55H194.042V57H203.495V55ZM203.495 38.38H214.278V36.38H203.495V38.38ZM214.278 38.38C216.75 38.38 218.9 37.7884 220.447 36.4735C222.02 35.1367 222.83 33.1707 222.83 30.73H220.83C220.83 32.7068 220.192 34.0658 219.152 34.9496C218.086 35.8553 216.46 36.38 214.278 36.38V38.38ZM222.83 30.73C222.83 28.2688 222.022 26.2907 220.449 24.9466C218.901 23.6241 216.75 23.0325 214.278 23.0325V25.0325C216.46 25.0325 218.085 25.5572 219.15 26.4671C220.189 27.3555 220.83 28.7262 220.83 30.73H222.83ZM214.278 23.0325H203.495V25.0325H214.278V23.0325ZM202.495 24.0325V37.38H204.495V24.0325H202.495ZM244.59 56H243.59V57H244.59V56ZM244.59 16.1V15.1H243.59V16.1H244.59ZM254.042 16.1H255.042V15.1H254.042V16.1ZM254.042 48.0675H253.042V49.0675H254.042V48.0675ZM277.032 48.0675H278.032V47.0675H277.032V48.0675ZM277.032 56V57H278.032V56H277.032ZM245.59 56V16.1H243.59V56H245.59ZM244.59 17.1H254.042V15.1H244.59V17.1ZM253.042 16.1V48.0675H255.042V16.1H253.042ZM254.042 49.0675H277.032V47.0675H254.042V49.0675ZM276.032 48.0675V56H278.032V48.0675H276.032ZM277.032 55H244.59V57H277.032V55ZM322.87 56L321.932 56.346L322.173 57H322.87V56ZM320.4 49.3025L321.338 48.9565L321.097 48.3025H320.4V49.3025ZM300.735 49.3025V48.3025H300.038L299.797 48.9565L300.735 49.3025ZM298.265 56V57H298.962L299.203 56.346L298.265 56ZM288.48 56L287.547 55.6392L287.021 57H288.48V56ZM303.917 16.1V15.1H303.232L302.985 15.7392L303.917 16.1ZM317.217 16.1L318.15 15.7382L317.902 15.1H317.217V16.1ZM332.702 56V57H334.163L333.635 55.6382L332.702 56ZM303.395 42.13L302.456 41.7849L301.962 43.13H303.395V42.13ZM317.74 42.13V43.13H319.173L318.678 41.7849L317.74 42.13ZM311.47 25.0775L312.408 24.7324L312.168 24.0775H311.47V25.0775ZM309.665 25.0775V24.0775H308.967L308.726 24.7324L309.665 25.0775ZM323.808 55.654L321.338 48.9565L319.462 49.6485L321.932 56.346L323.808 55.654ZM320.4 48.3025H300.735V50.3025H320.4V48.3025ZM299.797 48.9565L297.327 55.654L299.203 56.346L301.673 49.6485L299.797 48.9565ZM298.265 55H288.48V57H298.265V55ZM289.413 56.3608L304.85 16.4608L302.985 15.7392L287.547 55.6392L289.413 56.3608ZM303.917 17.1H317.217V15.1H303.917V17.1ZM316.285 16.4618L331.77 56.3618L333.635 55.6382L318.15 15.7382L316.285 16.4618ZM332.702 55H322.87V57H332.702V55ZM303.395 43.13H317.74V41.13H303.395V43.13ZM318.678 41.7849L312.408 24.7324L310.531 25.4226L316.801 42.4751L318.678 41.7849ZM311.47 24.0775H309.665V26.0775H311.47V24.0775ZM308.726 24.7324L302.456 41.7849L304.333 42.4751L310.603 25.4226L308.726 24.7324ZM376.253 16.1L377.108 16.6193L378.031 15.1H376.253V16.1ZM359.771 43.2225L358.916 42.7032L358.771 42.9425V43.2225H359.771ZM359.771 56V57H360.771V56H359.771ZM350.271 56H349.271V57H350.271V56ZM350.271 43.175H351.271V42.8952L351.126 42.6561L350.271 43.175ZM333.836 16.1V15.1H332.059L332.981 16.6189L333.836 16.1ZM343.906 16.1L344.765 15.5882L344.474 15.1H343.906V16.1ZM354.546 33.96L353.687 34.4718L353.977 34.96H354.546V33.96ZM355.543 33.96V34.96H356.111L356.402 34.4718L355.543 33.96ZM366.183 16.1V15.1H365.615L365.324 15.5882L366.183 16.1ZM375.399 15.5807L358.916 42.7032L360.625 43.7418L377.108 16.6193L375.399 15.5807ZM358.771 43.2225V56H360.771V43.2225H358.771ZM359.771 55H350.271V57H359.771V55ZM351.271 56V43.175H349.271V56H351.271ZM351.126 42.6561L334.691 15.5811L332.981 16.6189L349.416 43.6939L351.126 42.6561ZM333.836 17.1H343.906V15.1H333.836V17.1ZM343.047 16.6118L353.687 34.4718L355.405 33.4482L344.765 15.5882L343.047 16.6118ZM354.546 34.96H355.543V32.96H354.546V34.96ZM356.402 34.4718L367.042 16.6118L365.324 15.5882L354.684 33.4482L356.402 34.4718ZM366.183 17.1H376.253V15.1H366.183V17.1ZM388.384 56H387.384V57H388.384V56ZM388.384 16.1V15.1H387.384V16.1H388.384ZM397.836 16.1H398.836V15.1H397.836V16.1ZM397.836 56V57H398.836V56H397.836ZM389.384 56V16.1H387.384V56H389.384ZM388.384 17.1H397.836V15.1H388.384V17.1ZM396.836 16.1V56H398.836V16.1H396.836ZM397.836 55H388.384V57H397.836V55ZM411.6 56H410.6V57H411.6V56ZM411.6 16.1V15.1H410.6V16.1H411.6ZM422.572 16.1L423.395 15.5319L423.097 15.1H422.572V16.1ZM441.097 42.9375L440.274 43.5056L440.573 43.9375H441.097V42.9375ZM442 42.9375V43.9375H443V42.9375H442ZM442 16.1V15.1H441V16.1H442ZM451.262 16.1H452.262V15.1H451.262V16.1ZM451.262 56V57H452.262V56H451.262ZM440.48 56L439.66 56.573L439.959 57H440.48V56ZM421.717 29.1625L422.537 28.5895L422.238 28.1625H421.717V29.1625ZM420.862 29.1625V28.1625H419.862V29.1625H420.862ZM420.862 56V57H421.862V56H420.862ZM412.6 56V16.1H410.6V56H412.6ZM411.6 17.1H422.572V15.1H411.6V17.1ZM421.749 16.6681L440.274 43.5056L441.92 42.3694L423.395 15.5319L421.749 16.6681ZM441.097 43.9375H442V41.9375H441.097V43.9375ZM443 42.9375V16.1H441V42.9375H443ZM442 17.1H451.262V15.1H442V17.1ZM450.262 16.1V56H452.262V16.1H450.262ZM451.262 55H440.48V57H451.262V55ZM441.299 55.427L422.537 28.5895L420.898 29.7355L439.66 56.573L441.299 55.427ZM421.717 28.1625H420.862V30.1625H421.717V28.1625ZM419.862 29.1625V56H421.862V29.1625H419.862ZM420.862 55H411.6V57H420.862V55ZM506.454 34.91H507.454V33.91H506.454V34.91ZM506.454 56V57H507.454V56H506.454ZM500.516 56L499.516 56.0164L499.532 57H500.516V56ZM500.421 50.205L501.421 50.1886L501.368 46.9513L499.586 49.6547L500.421 50.205ZM505.836 28.83V29.83H507.072L506.814 28.6214L505.836 28.83ZM496.384 28.83L495.462 29.2181L495.72 29.83H496.384V28.83ZM497.191 41.3225L498.166 41.5451L498.445 40.3225H497.191V41.3225ZM485.601 41.3225H484.601V42.3225H485.601V41.3225ZM485.601 34.91V33.91H484.601V34.91H485.601ZM505.454 34.91V56H507.454V34.91H505.454ZM506.454 55H500.516V57H506.454V55ZM501.516 55.9836L501.421 50.1886L499.421 50.2214L499.516 56.0164L501.516 55.9836ZM499.586 49.6547C497.037 53.5223 492.335 56.33 485.554 56.33V58.33C492.928 58.33 498.295 55.2477 501.256 50.7553L499.586 49.6547ZM485.554 56.33C474.026 56.33 465.274 48.023 465.274 36.05H463.274C463.274 49.157 472.951 58.33 485.554 58.33V56.33ZM465.274 36.05C465.274 30.0255 467.414 24.9729 471.073 21.4255C474.735 17.8761 479.985 15.77 486.314 15.77V13.77C479.533 13.77 473.762 16.0339 469.681 19.9895C465.599 23.9471 463.274 29.5345 463.274 36.05H465.274ZM486.314 15.77C494.689 15.77 502.856 19.6504 504.858 29.0386L506.814 28.6214C504.541 17.9646 495.228 13.77 486.314 13.77V15.77ZM505.836 27.83H496.384V29.83H505.836V27.83ZM497.305 28.4419C495.6 24.3925 491.576 21.9875 486.456 21.9875V23.9875C490.931 23.9875 494.127 26.0475 495.462 29.2181L497.305 28.4419ZM486.456 21.9875C478.484 21.9875 472.631 27.8125 472.631 36.05H474.631C474.631 28.8975 479.608 23.9875 486.456 23.9875V21.9875ZM472.631 36.05C472.631 44.2301 478.522 50.1125 486.266 50.1125V48.1125C479.665 48.1125 474.631 43.1649 474.631 36.05H472.631ZM486.266 50.1125C490.448 50.1125 496.634 48.255 498.166 41.5451L496.216 41.0999C494.993 46.455 490.065 48.1125 486.266 48.1125V50.1125ZM497.191 40.3225H485.601V42.3225H497.191V40.3225ZM486.601 41.3225V34.91H484.601V41.3225H486.601ZM485.601 35.91H506.454V33.91H485.601V35.91ZM195.942 148H194.942V149H195.942V148ZM195.942 71V70H194.942V71H195.942ZM260.658 71H261.658V70H260.658V71ZM260.658 86.3083V87.3083H261.658V86.3083H260.658ZM214.183 86.3083V85.3083H213.183V86.3083H214.183ZM214.183 104.458H213.183V105.458H214.183V104.458ZM258.092 104.458H259.092V103.458H258.092V104.458ZM258.092 118.3V119.3H259.092V118.3H258.092ZM214.183 118.3V117.3H213.183V118.3H214.183ZM214.183 148V149H215.183V148H214.183ZM196.942 148V71H194.942V148H196.942ZM195.942 72H260.658V70H195.942V72ZM259.658 71V86.3083H261.658V71H259.658ZM260.658 85.3083H214.183V87.3083H260.658V85.3083ZM213.183 86.3083V104.458H215.183V86.3083H213.183ZM214.183 105.458H258.092V103.458H214.183V105.458ZM257.092 104.458V118.3H259.092V104.458H257.092ZM258.092 117.3H214.183V119.3H258.092V117.3ZM213.183 118.3V148H215.183V118.3H213.183ZM214.183 147H195.942V149H214.183V147ZM287.151 148H286.151V149H287.151V148ZM287.151 71V70H286.151V71H287.151ZM305.393 71H306.393V70H305.393V71ZM305.393 148V149H306.393V148H305.393ZM288.151 148V71H286.151V148H288.151ZM287.151 72H305.393V70H287.151V72ZM304.393 71V148H306.393V71H304.393ZM305.393 147H287.151V149H305.393V147ZM331.955 148H330.955V149H331.955V148ZM331.955 71V70H330.955V71H331.955ZM396.763 71H397.763V70H396.763V71ZM396.763 85.9417V86.9417H397.763V85.9417H396.763ZM350.197 85.9417V84.9417H349.197V85.9417H350.197ZM350.197 102.808H349.197V103.808H350.197V102.808ZM395.113 102.808H396.113V101.808H395.113V102.808ZM395.113 116.008V117.008H396.113V116.008H395.113ZM350.197 116.008V115.008H349.197V116.008H350.197ZM350.197 132.967H349.197V133.967H350.197V132.967ZM396.763 132.967H397.763V131.967H396.763V132.967ZM396.763 148V149H397.763V148H396.763ZM332.955 148V71H330.955V148H332.955ZM331.955 72H396.763V70H331.955V72ZM395.763 71V85.9417H397.763V71H395.763ZM396.763 84.9417H350.197V86.9417H396.763V84.9417ZM349.197 85.9417V102.808H351.197V85.9417H349.197ZM350.197 103.808H395.113V101.808H350.197V103.808ZM394.113 102.808V116.008H396.113V102.808H394.113ZM395.113 115.008H350.197V117.008H395.113V115.008ZM349.197 116.008V132.967H351.197V116.008H349.197ZM350.197 133.967H396.763V131.967H350.197V133.967ZM395.763 132.967V148H397.763V132.967H395.763ZM396.763 147H331.955V149H396.763V147ZM423.38 148H422.38V149H423.38V148ZM423.38 71V70H422.38V71H423.38ZM441.621 71H442.621V70H441.621V71ZM441.621 132.692H440.621V133.692H441.621V132.692ZM485.988 132.692H486.988V131.692H485.988V132.692ZM485.988 148V149H486.988V148H485.988ZM424.38 148V71H422.38V148H424.38ZM423.38 72H441.621V70H423.38V72ZM440.621 71V132.692H442.621V71H440.621ZM441.621 133.692H485.988V131.692H441.621V133.692ZM484.988 132.692V148H486.988V132.692H484.988ZM485.988 147H423.38V149H485.988V147ZM511.796 148H510.796V149H511.796V148ZM511.796 71V70H510.796V71H511.796ZM530.221 86.4V85.4H529.225L529.221 86.396L530.221 86.4ZM530.038 132.6L529.038 132.596L529.034 133.6H530.038V132.6ZM547.18 72C561.939 72 571.954 76.0932 578.288 82.7251C584.63 89.3661 587.43 98.7073 587.43 109.5H589.43C589.43 98.3844 586.546 88.4756 579.734 81.3437C572.914 74.2026 562.304 70 547.18 70V72ZM587.43 109.5C587.43 120.293 584.63 129.634 578.288 136.275C571.954 142.907 561.939 147 547.18 147V149C562.304 149 572.914 144.797 579.734 137.656C586.546 130.524 589.43 120.616 589.43 109.5H587.43ZM547.18 147H511.796V149H547.18V147ZM512.796 148V71H510.796V148H512.796ZM511.796 72H547.18V70H511.796V72ZM547.088 133.6C554.738 133.6 560.78 131.485 564.906 127.323C569.03 123.162 571.096 117.1 571.096 109.5H569.096C569.096 116.75 567.13 122.238 563.485 125.915C559.842 129.59 554.379 131.6 547.088 131.6V133.6ZM571.096 109.5C571.096 101.9 569.03 95.8381 564.906 91.6773C560.78 87.515 554.738 85.4 547.088 85.4V87.4C554.379 87.4 559.842 89.41 563.485 93.0852C567.13 96.7619 569.096 102.25 569.096 109.5H571.096ZM547.088 85.4H530.221V87.4H547.088V85.4ZM529.221 86.396L529.038 132.596L531.038 132.604L531.221 86.404L529.221 86.396ZM530.038 133.6H547.088V131.6H530.038V133.6Z" fill="#083358" mask="url(#path-1-outside-1_491_10)"/>
<g clip-path="url(#clip0_491_10)">
<path d="M16.8485 43.8438C8.09462 59.1631 0.896378 71.8721 0.843644 72.0566C0.764542 72.373 6.03798 72.4258 32.9325 72.4258C51.1786 72.4258 65.1268 72.3203 65.1268 72.1885C65.1268 71.8457 33.2489 16.1318 33.0116 16.0527C32.8798 16.0264 25.6024 28.5244 16.8485 43.8438ZM39.2079 49.9609L45.3515 60.6924L39.1552 60.7715C35.7538 60.7979 30.164 60.7979 26.7626 60.7715L20.5663 60.6924L26.7099 49.9609C30.0585 44.0547 32.8798 39.2031 32.9589 39.2031C33.038 39.2031 35.8593 44.0547 39.2079 49.9609Z" fill="#FF810C"/>
<path d="M77.7832 44.2129V72.4258H105.996H134.209V44.2129V16H105.996H77.7832V44.2129ZM122.871 44.0811V60.8242H106.128H89.3848V44.0811V27.3379H106.128H122.871V44.0811Z" fill="#083358"/>
<path d="M102.595 94.8642C96.3985 95.6289 90.5713 98.4765 86.1153 102.906C78.2315 110.816 75.753 122.233 79.6026 132.807C81.0528 136.762 83.2676 140.084 86.5372 143.248C89.8594 146.465 93.7354 148.68 98.4815 150.103C100.696 150.789 101.197 150.842 105.864 150.842C110.294 150.868 111.138 150.789 113.036 150.262C121.157 148.047 127.565 142.879 131.177 135.707C133.497 131.066 134.367 126.9 134.13 121.495C133.814 114.297 131.019 107.942 125.903 102.88C121.843 98.8193 116.622 96.0771 111.138 95.1015C108.791 94.706 104.81 94.5742 102.595 94.8642ZM109.45 106.545C114.381 107.6 118.652 110.948 120.999 115.615C122.186 117.962 122.687 120.15 122.687 122.919C122.687 127.533 121.157 131.119 117.73 134.547C115.409 136.867 113.985 137.764 111.006 138.818C108.475 139.688 104.177 139.794 101.646 139.029C96.3985 137.447 92.0215 133.334 90.2549 128.271C89.3585 125.714 89.1475 121.864 89.754 119.228C91.0196 113.875 95.0538 109.234 100.116 107.336C101.092 106.967 102.384 106.571 102.964 106.439C104.651 106.097 107.578 106.149 109.45 106.545Z" fill="#FF810C"/>
<path d="M9.22852 99.1885L5.1416 103.275L14.9766 113.11L24.7852 122.919L14.9766 132.728L5.1416 142.562L9.22852 146.649L13.3154 150.736L23.124 140.928L32.959 131.093L42.7939 140.928L52.6025 150.736L56.6895 146.649L60.7764 142.562L50.9414 132.728L41.1328 122.919L50.9414 113.11L60.7764 103.275L56.6895 99.1885L52.6025 95.1016L42.7939 104.91L32.959 114.745L23.124 104.91L13.3154 95.1016L9.22852 99.1885Z" fill="#083358"/>
</g>
<line x1="164.5" y1="151.002" x2="164.5" y2="15.9983" stroke="#083358" stroke-width="6"/>
<defs>
<clipPath id="clip0_491_10">
<rect width="135" height="135" fill="white" transform="translate(0 16)"/>
</clipPath>
</defs>
</svg>
