<svg width="61" height="61" viewBox="0 0 61 61" fill="none" xmlns="http://www.w3.org/2000/svg">
<path d="M7.62533 30.5002C7.62533 25.5871 11.6081 21.6043 16.5212 21.6043C19.5801 21.6043 21.6543 22.7069 23.3815 24.4341C25.2276 26.2802 26.65 28.8028 28.2784 31.7344L28.3641 31.8884C29.8916 34.6388 31.6265 37.7625 34.0246 40.1608C36.5866 42.7225 39.9134 44.4793 44.4795 44.4793C52.2001 44.4793 58.4587 38.2207 58.4587 30.5002C58.4587 22.7797 52.2001 16.521 44.4795 16.521C40.2588 16.521 36.4753 18.3914 33.912 21.3486C35.0466 23.0126 35.9837 24.669 36.763 26.0711C38.2984 23.4017 41.1789 21.6043 44.4795 21.6043C49.3925 21.6043 53.3753 25.5871 53.3753 30.5002C53.3753 35.4132 49.3925 39.396 44.4795 39.396C41.4206 39.396 39.3463 38.2934 37.6193 36.5661C35.773 34.7201 34.3507 32.1975 32.7223 29.2659L32.6366 29.1119C31.1091 26.3616 29.3741 23.2377 26.9761 20.8396C24.4141 18.2778 21.0873 16.521 16.5212 16.521C8.80067 16.521 2.54199 22.7797 2.54199 30.5002C2.54199 38.2207 8.80067 44.4793 16.5212 44.4793C20.7417 44.4793 24.5255 42.6089 27.0886 39.6517C25.954 37.9877 25.017 36.3313 24.2378 34.9293C22.7023 37.5985 19.8217 39.396 16.5212 39.396C11.6081 39.396 7.62533 35.4132 7.62533 30.5002Z" fill="#FF810C"/>
</svg>
