<svg width="72" height="34" viewBox="0 0 72 34" fill="none" xmlns="http://www.w3.org/2000/svg">
<path d="M53.9502 1.73245e-07H17.9825C15.018 -0.000399709 12.0993 0.691459 9.48641 2.01398C6.8735 3.3365 4.64741 5.24865 3.00631 7.58019C1.3652 9.91173 0.360023 12.5903 0.0802508 15.3775C-0.199521 18.1646 0.254797 20.9739 1.40276 23.5551C2.55072 26.1363 4.35671 28.4094 6.65993 30.1721C8.96315 31.9347 11.6921 33.1322 14.6039 33.6578C17.5157 34.1835 20.52 34.0211 23.3493 33.185C26.1785 32.349 28.745 30.8652 30.8201 28.8659H41.1047C43.1796 30.865 45.7457 32.3486 48.5746 33.1847C51.4035 34.0209 54.4074 34.1835 57.3189 33.6582C60.2305 33.1329 62.9593 31.9359 65.2626 30.1738C67.5659 28.4117 69.3721 26.1392 70.5205 23.5585C71.669 20.9778 72.1239 18.169 71.845 15.3821C71.5661 12.5952 70.5619 9.91662 68.9218 7.58483C67.2817 5.25305 65.0565 3.34037 62.4445 2.01705C59.8324 0.693734 56.9144 0.000825136 53.9502 1.73245e-07ZM27.8714 18.2534C27.8714 18.5912 27.7294 18.9151 27.4765 19.1539C27.2236 19.3927 26.8806 19.5269 26.5229 19.5269H20.6795V25.0454C20.6795 25.3831 20.5374 25.707 20.2845 25.9459C20.0316 26.1847 19.6886 26.3189 19.331 26.3189H16.634C16.2764 26.3189 15.9334 26.1847 15.6805 25.9459C15.4276 25.707 15.2855 25.3831 15.2855 25.0454V19.5269H9.44203C9.08439 19.5269 8.74139 19.3927 8.4885 19.1539C8.23561 18.9151 8.09353 18.5912 8.09353 18.2534V15.7064C8.09353 15.3687 8.23561 15.0448 8.4885 14.8059C8.74139 14.5671 9.08439 14.4329 9.44203 14.4329H15.2855V8.91445C15.2855 8.5767 15.4276 8.25279 15.6805 8.01396C15.9334 7.77513 16.2764 7.64096 16.634 7.64096H19.331C19.6886 7.64096 20.0316 7.77513 20.2845 8.01396C20.5374 8.25279 20.6795 8.5767 20.6795 8.91445V14.4329H26.5229C26.8806 14.4329 27.2236 14.5671 27.4765 14.8059C27.7294 15.0448 27.8714 15.3687 27.8714 15.7064V18.2534ZM52.1443 26.3189C51.2553 26.3189 50.3862 26.0699 49.647 25.6035C48.9079 25.137 48.3317 24.474 47.9915 23.6984C47.6513 22.9227 47.5623 22.0692 47.7357 21.2457C47.9092 20.4223 48.3373 19.6659 48.9659 19.0722C49.5945 18.4786 50.3955 18.0743 51.2674 17.9105C52.1393 17.7467 53.0431 17.8307 53.8645 18.152C54.6858 18.4733 55.3879 19.0174 55.8818 19.7155C56.3757 20.4136 56.6393 21.2343 56.6393 22.0739C56.6393 23.1997 56.1657 24.2795 55.3228 25.0755C54.4798 25.8716 53.3365 26.3189 52.1443 26.3189ZM59.3363 16.1309C58.4473 16.1309 57.5782 15.882 56.839 15.4155C56.0998 14.9491 55.5237 14.2861 55.1835 13.5104C54.8433 12.7348 54.7542 11.8812 54.9277 11.0578C55.1011 10.2343 55.5292 9.47796 56.1579 8.88429C56.7865 8.29062 57.5874 7.88632 58.4594 7.72253C59.3313 7.55873 60.2351 7.6428 61.0564 7.96409C61.8778 8.28538 62.5798 8.82947 63.0737 9.52756C63.5676 10.2256 63.8313 11.0464 63.8313 11.8859C63.8313 13.0118 63.3577 14.0915 62.5147 14.8876C61.6718 15.6837 60.5284 16.1309 59.3363 16.1309Z" fill="#FF810C"/>
</svg>
