<svg width="100" height="70" viewBox="0 0 100 70" fill="none" xmlns="http://www.w3.org/2000/svg">
<path d="M15.6591 29.9474C21.0982 29.9474 25.5203 25.5352 25.5203 20.1085C25.5203 14.6817 21.0982 10.2696 15.6591 10.2696C10.22 10.2696 5.79782 14.6817 5.79782 20.1085C5.79782 25.5352 10.22 29.9474 15.6591 29.9474ZM84.6879 29.9474C90.127 29.9474 94.5491 25.5352 94.5491 20.1085C94.5491 14.6817 90.127 10.2696 84.6879 10.2696C79.2488 10.2696 74.8266 14.6817 74.8266 20.1085C74.8266 25.5352 79.2488 29.9474 84.6879 29.9474ZM89.6185 34.8668H79.7572C77.0454 34.8668 74.5955 35.9583 72.8081 37.7262C79.0176 41.1237 83.4244 47.2577 84.3797 54.5446H94.5491C97.2764 54.5446 99.4798 52.3462 99.4798 49.6251V44.7057C99.4798 39.2789 95.0576 34.8668 89.6185 34.8668ZM50.1735 34.8668C59.7112 34.8668 67.4307 27.1648 67.4307 17.6487C67.4307 8.13267 59.7112 0.430664 50.1735 0.430664C40.6358 0.430664 32.9163 8.13267 32.9163 17.6487C32.9163 27.1648 40.6358 34.8668 50.1735 34.8668ZM62.007 39.7862H60.7281C57.5232 41.3236 53.9639 42.246 50.1735 42.246C46.383 42.246 42.8392 41.3236 39.6188 39.7862H38.34C28.5403 39.7862 20.5897 47.7189 20.5897 57.4963V61.9238C20.5897 65.9977 23.9025 69.3029 27.9856 69.3029H72.3613C76.4445 69.3029 79.7572 65.9977 79.7572 61.9238V57.4963C79.7572 47.7189 71.8066 39.7862 62.007 39.7862ZM27.5388 37.7262C25.7515 35.9583 23.3015 34.8668 20.5897 34.8668H10.7284C5.28934 34.8668 0.867188 39.2789 0.867188 44.7057V49.6251C0.867188 52.3462 3.07056 54.5446 5.79782 54.5446H15.9518C16.9225 47.2577 21.3293 41.1237 27.5388 37.7262Z" fill="#FF810C"/>
</svg>
