<svg xmlns="http://www.w3.org/2000/svg" viewBox="0 0 1440 320">
    <defs>
        <linearGradient id="gradient" x1="0%" y1="0%" x2="100%" y2="0%">
            <stop offset="-31.89%" stop-color="#005FCF" />
            <stop offset="122.47%" stop-color="rgba(0, 239, 182, 0.58)" />
            <stop offset="122.47%" stop-color="#009D77" />
        </linearGradient>
    </defs>
    <path fill="url(#gradient)" fill-opacity="1" d="M0,256L30,218.7C60,181,120,107,180,90.7C240,75,300,117,360,122.7C420,128,480,96,540,106.7C600,117,660,171,720,186.7C780,203,840,181,900,160C960,139,1020,117,1080,128C1140,139,1200,181,1260,186.7C1320,192,1380,160,1410,144L1440,128L1440,320L1410,320C1380,320,1320,320,1260,320C1200,320,1140,320,1080,320C1020,320,960,320,900,320C840,320,780,320,720,320C660,320,600,320,540,320C480,320,420,320,360,320C300,320,240,320,180,320C120,320,60,320,30,320L0,320Z"></path>
</svg>
