<svg width="1440" height="582" viewBox="0 0 1440 582" fill="none" xmlns="http://www.w3.org/2000/svg">
<path d="M-85 195.2L-52.1875 152.188C-19.375 108.715 46.25 23.3841 111.875 4.58813C177.5 -13.5159 243.125 34.9153 308.75 41.4881C374.375 47.5997 440 10.6997 505.625 23.0381C571.25 34.9153 636.875 97.1841 702.5 115.288C768.125 134.084 833.75 108.715 899.375 84.4997C965 60.2841 1030.62 34.9153 1096.25 47.5997C1161.88 60.2841 1227.5 108.715 1293.12 115.288C1358.75 121.4 1424.38 84.4997 1457.19 66.0497L1490 47.5997L1457.19 582H1424.38C1391.56 582 1325.94 582 1260.31 582C1194.69 582 1129.06 582 1063.44 582C997.812 582 932.188 582 866.562 582C800.938 582 735.312 582 669.688 582C604.062 582 538.438 582 472.812 582C407.188 582 341.562 582 275.938 582C210.312 582 144.688 582 79.0625 582C13.4375 582 -52.1875 582 -85 582H-117.812L-85 195.2Z" fill="url(#paint0_linear_83_27)"/>
<defs>
<linearGradient id="paint0_linear_83_27" x1="-85" y1="134.781" x2="1490" y2="134.781" gradientUnits="userSpaceOnUse">
<stop stop-color="#0466CF"/>
<stop offset="1" stop-color="#66EAD2"/>
</linearGradient>
</defs>
</svg>
